#!OML:ASF F:\VICON\USERDATA\INSTALL\rory3\rory3.ASF
:FULLY-SPECIFIED
:DEGREES
173
root 0.178106 14.0291 -12.7932 22.1508 2.26436 6.84863
lowerback 31.042 -1.06389 -0.650892
upperback 3.30688 -1.61342 -0.457018
thorax -12.5157 -0.691826 0.479966
lowerneck -17.1905 -2.84754 -6.7564
upperneck -25.5817 -1.69362 7.84043
head -4.9608 -0.583295 3.68173
rclavicle 1.47101e-014 0
rhumerus -1.92722 6.93529 -78.4443
rradius 33.1877
rwrist -0.921761
rhand -30.2145 -3.02118
rfingers 7.12502
rthumb -3.52456 -32.9718
lclavicle 1.47101e-014 0
lhumerus -2.42335 -12.919 85.42
lradius 38.0742
lwrist 9.434
lhand -35.8854 25.1215
lfingers 7.12502
lthumb -8.99918 54.9095
rfemur -70.4613 -6.54955 12.259
rtibia 103.921
rfoot -36.8569 -8.67765
rtoes -23.5968
lfemur -67.4607 -4.79797 -26.2789
ltibia 95.9999
lfoot -37.6365 0.27206
ltoes -15.3246
174
root 0.186391 14.0725 -12.7068 21.8203 2.6653 6.51439
lowerback 30.2091 -1.27121 -0.222418
upperback 3.71157 -1.70734 -0.279
thorax -12.5062 -0.75294 0.482851
lowerneck -17.2098 -2.76973 -6.70472
upperneck -25.5542 -1.62349 7.67489
head -4.95965 -0.546438 3.61912
rclavicle -2.26615e-014 6.36111e-015
rhumerus 0.882391 8.01922 -78.0579
rradius 34.4027
rwrist -0.0868455
rhand -30.7161 -3.24043
rfingers 7.12502
rthumb -4.00902 -33.1825
lclavicle -2.26615e-014 6.36111e-015
lhumerus 0.434989 -14.2082 84.7871
lradius 40.6412
lwrist 8.73141
lhand -36.493 24.9497
lfingers 7.12502
lthumb -9.58551 54.7116
rfemur -69.2532 -6.15709 12.6821
rtibia 103.378
rfoot -36.9736 -9.62873
rtoes -23.8454
lfemur -66.541 -5.07769 -25.9016
ltibia 95.6527
lfoot -37.7073 0.930916
ltoes -16.4049
175
root 0.187151 14.1352 -12.6107 21.2527 2.90797 6.1066
lowerback 29.6148 -1.34668 0.0139901
upperback 3.72902 -1.69785 -0.0458347
thorax -12.1803 -0.757461 0.59742
lowerneck -17.1635 -2.69273 -6.82967
upperneck -25.4358 -1.51496 7.64421
head -4.93511 -0.481127 3.6299
rclavicle 2.54444e-014 -7.15625e-015
rhumerus 3.87204 8.87088 -77.592
rradius 35.4302
rwrist 1.01747
rhand -30.1504 -3.70263
rfingers 7.12502
rthumb -3.46271 -33.6543
lclavicle 2.54444e-014 -7.15625e-015
lhumerus 3.5307 -15.8332 83.8422
lradius 43.1875
lwrist 9.03932
lhand -37.3993 23.9259
lfingers 7.12502
lthumb -10.4598 53.6457
rfemur -67.6328 -5.54755 13.1218
rtibia 102.652
rfoot -37.0506 -10.5615
rtoes -24.0333
lfemur -65.1961 -5.10602 -25.5249
ltibia 95.2103
lfoot -37.8602 1.26868
ltoes -16.9566
176
root 0.172696 14.2246 -12.5094 20.3933 3.12166 5.59286
lowerback 29.4306 -1.36742 0.176851
upperback 3.79645 -1.6423 0.191777
thorax -12.0043 -0.735334 0.748735
lowerneck -17.1706 -2.60676 -6.90227
upperneck -25.3797 -1.38569 7.66254
head -4.92418 -0.410861 3.64926
rclavicle -5.56597e-015 7.55382e-015
rhumerus 7.01436 9.62608 -77.1383
rradius 36.3387
rwrist 1.81491
rhand -30.1892 -2.90182
rfingers 7.12502
rthumb -3.50015 -32.8528
lclavicle -5.56597e-015 7.55382e-015
lhumerus 6.93913 -17.4345 82.439
lradius 45.6413
lwrist 9.29442
lhand -37.2866 23.3687
lfingers 7.12502
lthumb -10.3512 53.0939
rfemur -65.4739 -4.71365 13.6782
rtibia 101.674
rfoot -37.2424 -11.3167
rtoes -23.8499
lfemur -63.3906 -4.88355 -25.0394
ltibia 94.5923
lfoot -37.9432 1.15887
ltoes -16.6262
177
root 0.150348 14.2991 -12.4088 19.428 3.53605 5.00967
lowerback 29.3304 -1.52586 0.488759
upperback 3.92241 -1.72142 0.38803
thorax -11.8081 -0.781536 0.818407
lowerneck -17.4083 -2.50881 -6.77439
upperneck -25.1985 -1.25299 7.71309
head -4.84156 -0.354527 3.64063
rclavicle 2.0276e-014 -1.27222e-014
rhumerus 10.3451 10.5364 -76.7529
rradius 37.2726
rwrist 2.07509
rhand -30.389 -2.17818
rfingers 7.12502
rthumb -3.69315 -32.1259
lclavicle 2.0276e-014 -1.27222e-014
lhumerus 10.5952 -18.5402 80.5272
lradius 47.8743
lwrist 8.91578
lhand -37.1818 22.0822
lfingers 7.12502
lthumb -10.2501 51.8124
rfemur -63.2641 -3.95304 14.4126
rtibia 100.691
rfoot -37.4074 -12.0516
rtoes -23.7778
lfemur -61.6475 -4.70685 -24.3954
ltibia 94.0445
lfoot -37.8034 1.2797
ltoes -17.0358
178
root 0.13351 14.4299 -12.2956 18.3883 3.74439 4.61916
lowerback 29.2365 -1.61873 0.610589
upperback 4.02493 -1.79307 0.468591
thorax -11.6414 -0.818783 0.862762
lowerneck -17.4869 -2.47162 -6.71378
upperneck -25.001 -1.18306 7.91424
head -4.76625 -0.332565 3.69239
rclavicle 3.06128e-014 -7.95139e-015
rhumerus 13.6221 11.5341 -76.2746
rradius 38.2735
rwrist 1.72155
rhand -30.6944 -1.92675
rfingers 7.12502
rthumb -3.98799 -31.8692
lclavicle 3.06128e-014 -7.95139e-015
lhumerus 14.3222 -19.5452 78.3154
lradius 50.3849
lwrist 8.37871
lhand -36.1074 23.8659
lfingers 7.12502
lthumb -9.21344 53.6446
rfemur -60.7384 -3.16042 14.8331
rtibia 99.3162
rfoot -37.3774 -12.5066
rtoes -23.434
lfemur -59.4795 -4.22151 -24.0602
ltibia 93.0791
lfoot -37.5091 1.0903
ltoes -16.8996
179
root 0.1193 14.542 -12.1906 17.6382 3.80653 5.03252
lowerback 29.1571 -1.60457 -0.00377917
upperback 3.92885 -1.97276 0.416002
thorax -11.6921 -0.874502 1.22601
lowerneck -17.527 -2.47911 -6.73019
upperneck -24.7165 -1.18538 8.0339
head -4.66481 -0.337203 3.72748
rclavicle 2.10712e-014 -2.0276e-014
rhumerus 16.7386 12.3834 -75.5977
rradius 39.3271
rwrist 1.59689
rhand -31.068 -1.70939
rfingers 7.12502
rthumb -4.34884 -31.6447
lclavicle 2.10712e-014 -2.0276e-014
lhumerus 18.0337 -20.3999 76.025
lradius 52.7035
lwrist 8.42466
lhand -36.2951 23.6108
lfingers 7.12502
lthumb -9.39451 53.3815
rfemur -58.7143 -2.72815 14.2819
rtibia 98.1228
rfoot -37.2228 -12.5241
rtoes -22.7871
lfemur -57.612 -4.1225 -24.5633
ltibia 92.0518
lfoot -37.0503 0.922285
ltoes -16.328
180
root 0.101116 14.6766 -12.0717 16.9259 3.77999 5.53231
lowerback 29.0474 -1.50174 -0.845282
upperback 3.80978 -2.10939 0.364894
thorax -11.7428 -0.899871 1.70512
lowerneck -17.7175 -2.49343 -6.75182
upperneck -24.3137 -1.19089 8.16167
head -4.50473 -0.339536 3.76259
rclavicle -2.98177e-014 -1.98785e-015
rhumerus 19.7498 12.9128 -74.9751
rradius 40.5389
rwrist 2.11791
rhand -30.7904 -2.04464
rfingers 7.12502
rthumb -4.08071 -31.9853
lclavicle -2.98177e-014 -1.98785e-015
lhumerus 21.7403 -20.9886 73.5029
lradius 55.2318
lwrist 8.0086
lhand -36.134 21.7352
lfingers 7.12502
lthumb -9.23912 51.5128
rfemur -56.5824 -2.25137 13.6431
rtibia 96.7379
rfoot -36.9627 -12.6502
rtoes -22.6787
lfemur -55.5253 -3.93261 -25.1627
ltibia 90.6761
lfoot -36.2785 0.627914
ltoes -15.3416
181
root 0.0643878 14.8248 -11.934 16.044 3.72877 5.08675
lowerback 28.7968 -1.33486 -1.09894
upperback 3.80777 -1.95453 0.518938
thorax -11.6063 -0.817844 1.96139
lowerneck -17.7444 -2.54091 -6.79163
upperneck -24.1186 -1.2175 8.42887
head -4.42831 -0.358523 3.85128
rclavicle 7.95139e-015 -1.31198e-014
rhumerus 22.6856 13.3788 -74.225
rradius 41.9153
rwrist 2.53953
rhand -29.1514 -3.26374
rfingers 7.12502
rthumb -2.4979 -33.2289
lclavicle 7.95139e-015 -1.31198e-014
lhumerus 25.4387 -21.2683 70.7863
lradius 57.8813
lwrist 7.94311
lhand -36.3415 21.3534
lfingers 7.12502
lthumb -9.43933 51.122
rfemur -54.1744 -1.20076 14.2069
rtibia 95.0797
rfoot -36.5656 -13.0971
rtoes -22.8837
lfemur -53.2844 -3.22421 -24.5896
ltibia 89.2321
lfoot -35.3758 -0.24631
ltoes -12.8464
182
root 0.0466156 14.9958 -11.7885 15.3745 3.64557 5.2809
lowerback 28.4279 -1.21563 -1.63237
upperback 3.78265 -1.96889 0.466299
thorax -11.4282 -0.806742 2.20387
lowerneck -17.6838 -2.55723 -6.84715
upperneck -24.1698 -1.21035 8.58184
head -4.44878 -0.357042 3.91235
rclavicle 3.69739e-014 -1.82882e-014
rhumerus 25.6138 13.9331 -73.1147
rradius 43.462
rwrist 2.78581
rhand -30.1969 -1.43242
rfingers 7.12502
rthumb -3.50759 -31.3833
lclavicle 3.69739e-014 -1.82882e-014
lhumerus 29.1636 -21.1176 68.0198
lradius 60.4947
lwrist 8.43799
lhand -36.2534 19.4028
lfingers 7.12502
lthumb -9.35429 49.1752
rfemur -51.8192 -0.665907 13.981
rtibia 93.2645
rfoot -36.1064 -13.1453
rtoes -23.287
lfemur -50.9835 -2.94938 -24.6984
ltibia 87.4576
lfoot -34.6176 -1.02253
ltoes -10.816
183
root 0.0422397 15.1802 -11.6294 14.5154 3.52925 5.17951
lowerback 28.2075 -1.16904 -1.80417
upperback 3.81851 -1.95663 0.483876
thorax -11.267 -0.797917 2.31072
lowerneck -17.6867 -2.50666 -6.87222
upperneck -24.3571 -1.12887 8.59011
head -4.51472 -0.315269 3.92576
rclavicle 7.95139e-015 3.57812e-015
rhumerus 28.5303 14.5809 -71.7025
rradius 45.21
rwrist 2.98348
rhand -30.4321 -1.17108
rfingers 7.12502
rthumb -3.73476 -31.1181
lclavicle 7.95139e-015 3.57812e-015
lhumerus 32.7262 -20.296 65.4379
lradius 63.0341
lwrist 7.86226
lhand -35.6154 19.556
lfingers 7.12502
lthumb -8.7387 49.3551
rfemur -49.1368 -0.0535142 14.0417
rtibia 91.165
rfoot -35.4783 -13.1995
rtoes -23.474
lfemur -48.3942 -2.46096 -24.5526
ltibia 85.4895
lfoot -33.9214 -1.67341
ltoes -10.5937
184
root 0.0515886 15.3824 -11.4583 13.4822 3.43029 4.87997
lowerback 28.2749 -1.21139 -1.53175
upperback 3.8287 -1.93243 0.478398
thorax -11.3009 -0.79857 2.14038
lowerneck -17.8369 -2.47191 -6.80231
upperneck -24.3498 -1.10015 8.48659
head -4.49771 -0.299952 3.8798
rclavicle 5.96354e-015 4.37326e-015
rhumerus 31.2224 15.2384 -69.9888
rradius 47.1315
rwrist 3.17841
rhand -31.3727 -0.919297
rfingers 7.12502
rthumb -4.64304 -30.8484
lclavicle 5.96354e-015 4.37326e-015
lhumerus 35.7107 -19.1904 63.1473
lradius 65.8398
lwrist 7.54547
lhand -35.416 19.9286
lfingers 7.12502
lthumb -8.54621 49.7356
rfemur -46.1235 0.489781 14.3057
rtibia 88.7948
rfoot -34.6234 -13.0505
rtoes -23.5519
lfemur -45.4395 -1.93106 -24.256
ltibia 83.2485
lfoot -33.0991 -2.17296
ltoes -10.346
185
root 0.0654477 15.6112 -11.269 12.1818 3.3934 4.20737
lowerback 28.6645 -1.29884 -0.822132
upperback 3.83815 -1.82169 0.578021
thorax -11.5149 -0.772522 1.81483
lowerneck -18.0945 -2.40964 -6.69813
upperneck -24.2753 -1.05882 8.22033
head -4.45029 -0.272303 3.77317
rclavicle 2.18663e-015 -7.95139e-016
rhumerus 33.7456 15.7438 -68.048
rradius 49.0806
rwrist 3.6892
rhand -31.049 -1.14254
rfingers 7.12502
rthumb -4.33046 -31.0783
lclavicle 2.18663e-015 -7.95139e-016
lhumerus 38.1412 -17.7925 61.3539
lradius 68.7434
lwrist 6.94097
lhand -35.168 19.8937
lfingers 7.12502
lthumb -8.30687 49.7103
rfemur -42.5248 1.00642 15.0224
rtibia 86.0298
rfoot -33.8125 -12.7485
rtoes -23.6521
lfemur -42.0438 -1.39142 -23.5232
ltibia 80.7843
lfoot -32.1846 -2.62644
ltoes -11.1431
186
root 0.0739374 15.8496 -11.0593 11.1376 2.99037 4.23061
lowerback 28.7506 -1.11168 -0.986111
upperback 3.78052 -1.63714 0.562246
thorax -11.6278 -0.680395 1.82664
lowerneck -18.4019 -2.34853 -6.68404
upperneck -24.228 -1.01614 7.84728
head -4.40763 -0.231338 3.6479
rclavicle -5.76476e-015 -3.97569e-015
rhumerus 36.1756 15.9207 -65.9999
rradius 50.7382
rwrist 4.51952
rhand -30.9362 -0.641531
rfingers 7.12502
rthumb -4.22149 -30.5794
lclavicle -5.76476e-015 -3.97569e-015
lhumerus 40.1788 -16.2597 60.0015
lradius 71.472
lwrist 6.44769
lhand -35.0643 18.681
lfingers 7.12502
lthumb -8.20683 48.5016
rfemur -39.2292 1.47532 14.9185
rtibia 83.1783
rfoot -32.87 -12.4197
rtoes -24.1511
lfemur -38.6708 -0.74379 -23.59
ltibia 77.9953
lfoot -31.1356 -2.91014
ltoes -13.2076
187
root 0.0815117 16.0947 -10.8355 10.3534 2.56632 4.1591
lowerback 28.3972 -0.880082 -1.12275
upperback 3.68647 -1.37424 0.629766
thorax -11.5585 -0.554904 1.87744
lowerneck -18.7044 -2.31842 -6.89509
upperneck -24.0929 -0.958991 7.63399
head -4.33338 -0.169873 3.61203
rclavicle 1.11319e-014 -3.97569e-015
rhumerus 38.2666 15.699 -64.1261
rradius 52.4597
rwrist 5.58019
rhand -30.669 -0.017857
rfingers 7.12502
rthumb -3.96352 -29.9607
lclavicle 1.11319e-014 -3.97569e-015
lhumerus 41.8135 -14.663 59.0154
lradius 74.0968
lwrist 5.65613
lhand -34.897 18.08
lfingers 7.12502
lthumb -8.04535 47.9069
rfemur -36.1406 1.85092 14.9426
rtibia 80.1645
rfoot -31.7164 -11.9752
rtoes -24.1549
lfemur -35.4519 -0.047893 -23.5315
ltibia 75.0122
lfoot -29.9837 -3.20367
ltoes -14.5488
